%TF.GenerationSoftware,KiCad,Pcbnew,9.0.2*%
%TF.CreationDate,2025-07-25T14:57:03+06:00*%
%TF.ProjectId,bl2,626c322e-6b69-4636-9164-5f7063625858,rev?*%
%TF.SameCoordinates,Original*%
%TF.FileFunction,Copper,L1,Top*%
%TF.FilePolarity,Positive*%
%FSLAX46Y46*%
G04 Gerber Fmt 4.6, Leading zero omitted, Abs format (unit mm)*
G04 Created by KiCad (PCBNEW 9.0.2) date 2025-07-25 14:57:03*
%MOMM*%
%LPD*%
G01*
G04 APERTURE LIST*
G04 Aperture macros list*
%AMRoundRect*
0 Rectangle with rounded corners*
0 $1 Rounding radius*
0 $2 $3 $4 $5 $6 $7 $8 $9 X,Y pos of 4 corners*
0 Add a 4 corners polygon primitive as box body*
4,1,4,$2,$3,$4,$5,$6,$7,$8,$9,$2,$3,0*
0 Add four circle primitives for the rounded corners*
1,1,$1+$1,$2,$3*
1,1,$1+$1,$4,$5*
1,1,$1+$1,$6,$7*
1,1,$1+$1,$8,$9*
0 Add four rect primitives between the rounded corners*
20,1,$1+$1,$2,$3,$4,$5,0*
20,1,$1+$1,$4,$5,$6,$7,0*
20,1,$1+$1,$6,$7,$8,$9,0*
20,1,$1+$1,$8,$9,$2,$3,0*%
G04 Aperture macros list end*
%TA.AperFunction,ComponentPad*%
%ADD10R,1.600000X1.600000*%
%TD*%
%TA.AperFunction,ComponentPad*%
%ADD11O,1.600000X1.600000*%
%TD*%
%TA.AperFunction,ComponentPad*%
%ADD12R,3.000000X3.000000*%
%TD*%
%TA.AperFunction,ComponentPad*%
%ADD13C,3.000000*%
%TD*%
%TA.AperFunction,ComponentPad*%
%ADD14RoundRect,0.249999X-0.850001X0.850001X-0.850001X-0.850001X0.850001X-0.850001X0.850001X0.850001X0*%
%TD*%
%TA.AperFunction,ComponentPad*%
%ADD15C,2.200000*%
%TD*%
%TA.AperFunction,ViaPad*%
%ADD16C,1.600000*%
%TD*%
%TA.AperFunction,Conductor*%
%ADD17C,0.760000*%
%TD*%
G04 APERTURE END LIST*
D10*
%TO.P,U5,1,EEP*%
%TO.N,SLEEP*%
X169217044Y-83470000D03*
D11*
%TO.P,U5,2,OUT1*%
%TO.N,MLP*%
X166677044Y-83470000D03*
%TO.P,U5,3,OUT2*%
%TO.N,MLN*%
X164137044Y-83470000D03*
%TO.P,U5,4,OUT3*%
%TO.N,MRP*%
X161597044Y-83470000D03*
%TO.P,U5,5,OUT4*%
%TO.N,MRN*%
X159057044Y-83470000D03*
%TO.P,U5,6,ULT*%
%TO.N,unconnected-(U5-ULT-Pad6)*%
X156517044Y-83470000D03*
D10*
%TO.P,U5,7,IN4*%
%TO.N,ML1*%
X169217044Y-68230000D03*
D11*
%TO.P,U5,8,IN3*%
%TO.N,ML2*%
X166677044Y-68230000D03*
%TO.P,U5,9,GND*%
%TO.N,GND*%
X164137044Y-68230000D03*
%TO.P,U5,10,VCC*%
%TO.N,VBUS*%
X161597044Y-68230000D03*
%TO.P,U5,11,IN2*%
%TO.N,MR2*%
X159057044Y-68230000D03*
%TO.P,U5,12,IN1*%
%TO.N,MR1*%
X156517044Y-68230000D03*
%TD*%
D12*
%TO.P,REF\u002A\u002A,1*%
%TO.N,MRP*%
X175470000Y-80870000D03*
D13*
%TO.P,REF\u002A\u002A,2*%
%TO.N,MRN*%
X180550000Y-80870000D03*
%TD*%
D11*
%TO.P,U4,1,LV1*%
%TO.N,llcRX*%
X151515000Y-78330000D03*
%TO.P,U4,2,LV2*%
%TO.N,llcTX*%
X148975000Y-78330000D03*
%TO.P,U4,3,LV*%
%TO.N,+3.3V*%
X146435000Y-78330000D03*
%TO.P,U4,4,GND*%
%TO.N,GND*%
X143895000Y-78330000D03*
%TO.P,U4,5,LV3*%
%TO.N,unconnected-(U4-LV3-Pad5)*%
X141355000Y-78330000D03*
%TO.P,U4,6,LV4*%
%TO.N,unconnected-(U4-LV4-Pad6)*%
X138815000Y-78330000D03*
%TO.P,U4,7,HV1*%
%TO.N,NRX*%
X151515000Y-68170000D03*
%TO.P,U4,8,HV2*%
%TO.N,NTX*%
X148975000Y-68170000D03*
%TO.P,U4,9,HV*%
%TO.N,+5V*%
X146435000Y-68170000D03*
%TO.P,U4,10,GND*%
%TO.N,GND*%
X143895000Y-68170000D03*
%TO.P,U4,11,HV3*%
%TO.N,unconnected-(U4-HV3-Pad11)*%
X141355000Y-68170000D03*
%TO.P,U4,12,HV4*%
%TO.N,unconnected-(U4-HV4-Pad12)*%
X138815000Y-68170000D03*
%TD*%
D14*
%TO.P,D1,1,K*%
%TO.N,Net-(A1-VIN)*%
X126970000Y-59250000D03*
D15*
%TO.P,D1,2,A*%
%TO.N,VBUS*%
X126970000Y-69410000D03*
%TD*%
D11*
%TO.P,U3,1,EN*%
%TO.N,unconnected-(U3-EN-Pad1)*%
X138785000Y-83420000D03*
%TO.P,U3,2,VCC*%
%TO.N,+5V*%
X141325000Y-83420000D03*
%TO.P,U3,3,GND*%
%TO.N,GND*%
X143865000Y-83420000D03*
%TO.P,U3,4,TX*%
%TO.N,llcTX*%
X146405000Y-83420000D03*
%TO.P,U3,5,RX*%
%TO.N,llcRX*%
X148945000Y-83420000D03*
%TO.P,U3,6,STATE*%
%TO.N,unconnected-(U3-STATE-Pad6)*%
X151485000Y-83420000D03*
%TD*%
D10*
%TO.P,A1,1,D1/TX*%
%TO.N,unconnected-(A1-D1{slash}TX-Pad1)*%
X141670000Y-62790000D03*
D11*
%TO.P,A1,2,D0/RX*%
%TO.N,unconnected-(A1-D0{slash}RX-Pad2)*%
X144210000Y-62790000D03*
%TO.P,A1,3,~{RESET}*%
%TO.N,unconnected-(A1-~{RESET}-Pad3)*%
X146750000Y-62790000D03*
%TO.P,A1,4,GND*%
%TO.N,GND*%
X149290000Y-62790000D03*
%TO.P,A1,5,D2*%
%TO.N,NTX*%
X151830000Y-62790000D03*
%TO.P,A1,6,D3*%
%TO.N,NRX*%
X154370000Y-62790000D03*
%TO.P,A1,7,D4*%
%TO.N,unconnected-(A1-D4-Pad7)*%
X156910000Y-62790000D03*
%TO.P,A1,8,D5*%
%TO.N,unconnected-(A1-D5-Pad8)*%
X159450000Y-62790000D03*
%TO.P,A1,9,D6*%
%TO.N,MR1*%
X161990000Y-62790000D03*
%TO.P,A1,10,D7*%
%TO.N,MR2*%
X164530000Y-62790000D03*
%TO.P,A1,11,D8*%
%TO.N,unconnected-(A1-D8-Pad11)*%
X167070000Y-62790000D03*
%TO.P,A1,12,D9*%
%TO.N,unconnected-(A1-D9-Pad12)*%
X169610000Y-62790000D03*
%TO.P,A1,13,D10*%
%TO.N,ML2*%
X172150000Y-62790000D03*
%TO.P,A1,14,D11*%
%TO.N,ML1*%
X174690000Y-62790000D03*
%TO.P,A1,15,D12*%
%TO.N,SLEEP*%
X177230000Y-62790000D03*
%TO.P,A1,16,D13*%
%TO.N,unconnected-(A1-D13-Pad16)*%
X177230000Y-47550000D03*
%TO.P,A1,17,3V3*%
%TO.N,+3.3V*%
X174690000Y-47550000D03*
%TO.P,A1,18,AREF*%
%TO.N,unconnected-(A1-AREF-Pad18)*%
X172150000Y-47550000D03*
%TO.P,A1,19,A0*%
%TO.N,unconnected-(A1-A0-Pad19)*%
X169610000Y-47550000D03*
%TO.P,A1,20,A1*%
%TO.N,unconnected-(A1-A1-Pad20)*%
X167070000Y-47550000D03*
%TO.P,A1,21,A2*%
%TO.N,unconnected-(A1-A2-Pad21)*%
X164530000Y-47550000D03*
%TO.P,A1,22,A3*%
%TO.N,unconnected-(A1-A3-Pad22)*%
X161990000Y-47550000D03*
%TO.P,A1,23,A4*%
%TO.N,unconnected-(A1-A4-Pad23)*%
X159450000Y-47550000D03*
%TO.P,A1,24,A5*%
%TO.N,unconnected-(A1-A5-Pad24)*%
X156910000Y-47550000D03*
%TO.P,A1,25,A6*%
%TO.N,unconnected-(A1-A6-Pad25)*%
X154370000Y-47550000D03*
%TO.P,A1,26,A7*%
%TO.N,unconnected-(A1-A7-Pad26)*%
X151830000Y-47550000D03*
%TO.P,A1,27,+5V*%
%TO.N,+5V*%
X149290000Y-47550000D03*
%TO.P,A1,28,~{RESET}*%
%TO.N,unconnected-(A1-~{RESET}-Pad28)*%
X146750000Y-47550000D03*
%TO.P,A1,29,GND*%
%TO.N,GND*%
X144210000Y-47550000D03*
%TO.P,A1,30,VIN*%
%TO.N,Net-(A1-VIN)*%
X141670000Y-47550000D03*
%TD*%
D12*
%TO.P,REF\u002A\u002A,1*%
%TO.N,VBUS*%
X126970000Y-80505000D03*
D13*
%TO.P,REF\u002A\u002A,2*%
%TO.N,GND*%
X132050000Y-80505000D03*
%TD*%
D12*
%TO.P,REF\u002A\u002A,1*%
%TO.N,MLP*%
X132050000Y-49920000D03*
D13*
%TO.P,REF\u002A\u002A,2*%
%TO.N,MLN*%
X126970000Y-49920000D03*
%TD*%
D16*
%TO.N,SLEEP*%
X177220000Y-66900000D03*
X171810000Y-83460000D03*
%TO.N,+5V*%
X136060000Y-80290000D03*
X136120000Y-70180000D03*
%TO.N,MLP*%
X132070000Y-55140000D03*
X180320000Y-75170000D03*
X166677044Y-80280000D03*
X171780000Y-75170000D03*
%TO.N,MLN*%
X132070000Y-57390000D03*
X180320000Y-72920000D03*
X171780000Y-72920000D03*
X164137044Y-80280000D03*
%TD*%
D17*
%TO.N,SLEEP*%
X171810000Y-79650000D02*
X177250000Y-74210000D01*
X171810000Y-83460000D02*
X171810000Y-79650000D01*
X177250000Y-74210000D02*
X177250000Y-66930000D01*
X177250000Y-66930000D02*
X177220000Y-66900000D01*
%TO.N,+5V*%
X136060000Y-80290000D02*
X136060000Y-70240000D01*
X136060000Y-70240000D02*
X136120000Y-70180000D01*
%TO.N,MLP*%
X166677044Y-80280000D02*
X166677044Y-80272956D01*
X132070000Y-55140000D02*
X178611018Y-55140000D01*
X178611018Y-55140000D02*
X183101000Y-59629982D01*
X180814989Y-75170000D02*
X180320000Y-75170000D01*
X183101000Y-72883989D02*
X180814989Y-75170000D01*
X183101000Y-59629982D02*
X183101000Y-72883989D01*
X166677044Y-80272956D02*
X171780000Y-75170000D01*
%TO.N,MLN*%
X164137044Y-80042956D02*
X171260000Y-72920000D01*
X164137044Y-80280000D02*
X164137044Y-80042956D01*
X132070000Y-57390000D02*
X178710000Y-57390000D01*
X178710000Y-57390000D02*
X181580000Y-60260000D01*
X181580000Y-71680000D02*
X180340000Y-72920000D01*
X181580000Y-60260000D02*
X181580000Y-71680000D01*
X180340000Y-72920000D02*
X180320000Y-72920000D01*
X171260000Y-72920000D02*
X171780000Y-72920000D01*
%TD*%
M02*
