M48
; DRILL file {KiCad 9.0.2} date 2025-07-25T14:57:01+0600
; FORMAT={-:-/ absolute / metric / decimal}
; #@! TF.CreationDate,2025-07-25T14:57:01+06:00
; #@! TF.GenerationSoftware,Kicad,Pcbnew,9.0.2
; #@! TF.FileFunction,Plated,1,2,PTH
FMAT,2
METRIC
; #@! TA.AperFunction,Plated,PTH,ViaDrill
T1C1.000
; #@! TA.AperFunction,Plated,PTH,ComponentDrill
T2C1.000
; #@! TA.AperFunction,Plated,PTH,ComponentDrill
T3C1.100
; #@! TA.AperFunction,Plated,PTH,ComponentDrill
T4C1.520
%
G90
G05
T1
X132.07Y-55.14
X132.07Y-57.39
X136.06Y-80.29
X136.12Y-70.18
X164.137Y-80.28
X166.677Y-80.28
X171.78Y-72.92
X171.78Y-75.17
X171.81Y-83.46
X177.22Y-66.9
X180.32Y-72.92
X180.32Y-75.17
T2
X138.785Y-83.42
X138.815Y-68.17
X138.815Y-78.33
X141.325Y-83.42
X141.355Y-68.17
X141.355Y-78.33
X141.67Y-47.55
X141.67Y-62.79
X143.865Y-83.42
X143.895Y-68.17
X143.895Y-78.33
X144.21Y-47.55
X144.21Y-62.79
X146.405Y-83.42
X146.435Y-68.17
X146.435Y-78.33
X146.75Y-47.55
X146.75Y-62.79
X148.945Y-83.42
X148.975Y-68.17
X148.975Y-78.33
X149.29Y-47.55
X149.29Y-62.79
X151.485Y-83.42
X151.515Y-68.17
X151.515Y-78.33
X151.83Y-47.55
X151.83Y-62.79
X154.37Y-47.55
X154.37Y-62.79
X156.517Y-68.23
X156.517Y-83.47
X156.91Y-47.55
X156.91Y-62.79
X159.057Y-68.23
X159.057Y-83.47
X159.45Y-47.55
X159.45Y-62.79
X161.597Y-68.23
X161.597Y-83.47
X161.99Y-47.55
X161.99Y-62.79
X164.137Y-68.23
X164.137Y-83.47
X164.53Y-47.55
X164.53Y-62.79
X166.677Y-68.23
X166.677Y-83.47
X167.07Y-47.55
X167.07Y-62.79
X169.217Y-68.23
X169.217Y-83.47
X169.61Y-47.55
X169.61Y-62.79
X172.15Y-47.55
X172.15Y-62.79
X174.69Y-47.55
X174.69Y-62.79
X177.23Y-47.55
X177.23Y-62.79
T3
X126.97Y-59.25
X126.97Y-69.41
T4
X126.97Y-49.92
X126.97Y-80.505
X132.05Y-49.92
X132.05Y-80.505
X175.47Y-80.87
X180.55Y-80.87
M30
